<?xml version="1.0" encoding="utf-8"?>
<!-- Generator: Adobe Illustrator 16.0.0, SVG Export Plug-In . SVG Version: 6.00 Build 0)  -->
<!DOCTYPE svg PUBLIC "-//W3C//DTD SVG 1.1//EN" "http://www.w3.org/Graphics/SVG/1.1/DTD/svg11.dtd">
<svg version="1.1" id="Capa_1" xmlns="http://www.w3.org/2000/svg" xmlns:xlink="http://www.w3.org/1999/xlink" x="0px" y="0px"
	 width="990px" height="990px" viewBox="0 0 990 990" enable-background="new 0 0 990 990" xml:space="preserve">
<path fill="#008AAF" d="M882.196,971.503L674.355,763.657C508.815,885.939,273.62,872.165,123.78,722.326l0,0
	c-165.021-165.027-165.021-433.536,0-598.562c165.021-165.021,433.541-165.017,598.562,0
	c149.855,149.854,163.644,385.03,41.338,550.575L971.515,882.18c24.624,24.628,24.624,64.695,0,89.318
	C959.588,983.43,943.725,990,926.854,990C909.981,990,894.123,983.43,882.196,971.503z M699.611,746.993l203.543,203.548
	c0,0,0,0,0.004,0c6.324,6.328,14.742,9.816,23.695,9.816c8.957,0,17.37-3.488,23.703-9.816c13.068-13.068,13.068-34.332,0-47.399
	L747.01,699.6L699.611,746.993z M144.733,144.726c-153.466,153.465-153.466,403.176,0,556.642l0,0
	c153.475,153.456,403.176,153.466,556.646,0c153.466-153.466,153.466-403.177,0-556.642
	C624.645,67.996,523.85,29.628,423.054,29.628C322.264,29.628,221.474,67.991,144.733,144.726z M158.655,687.446
	c-145.798-145.793-145.798-383.015,0-528.808c145.783-145.793,383.005-145.798,528.808,0c145.798,145.793,145.798,383.015,0,528.808
	c-72.896,72.901-168.653,109.347-264.404,109.347C327.303,796.793,231.552,760.348,158.655,687.446z M179.607,179.601
	c-134.237,134.237-134.237,352.655,0,486.893c134.242,134.228,352.65,134.232,486.893,0c134.238-134.237,134.238-352.655,0-486.893
	C599.379,112.484,511.222,78.924,423.059,78.924C334.896,78.924,246.733,112.484,179.607,179.601z M206.123,227.074
	c-5.79-5.786-5.79-15.172,0-20.958c57.941-57.947,134.983-89.857,216.936-89.857c81.948,0,158.984,31.911,216.932,89.857
	c5.79,5.785,5.79,15.172,0,20.958c-5.791,5.79-15.168,5.79-20.958,0c-108.058-108.053-283.884-108.063-391.951,0
	c-2.896,2.895-6.685,4.343-10.479,4.343C212.812,231.417,209.019,229.969,206.123,227.074z"/>
</svg>
